<?xml version="1.0" encoding="utf-8"?>
<!-- Generator: Adobe Illustrator 16.0.0, SVG Export Plug-In . SVG Version: 6.00 Build 0)  -->
<!DOCTYPE svg PUBLIC "-//W3C//DTD SVG 1.1//EN" "http://www.w3.org/Graphics/SVG/1.1/DTD/svg11.dtd">
<svg version="1.1" id="Layer_1" xmlns="http://www.w3.org/2000/svg" xmlns:xlink="http://www.w3.org/1999/xlink" x="0px" y="0px"
	 width="239.344px" height="159.986px" viewBox="0 0 239.344 159.986" enable-background="new 0 0 239.344 159.986"
	 xml:space="preserve">
<g>
	<g>
		<g>
			<path fill="#FFCD31" d="M171.93,67.667c23.975,0,32.676-17.848,32.676-29.844c0-11.995-8.701-29.843-32.676-29.843
				c-5.781,0-9.535-2.331-11.971-5.419l-21.855,0.676c4.437,12.717,14.836,24.743,33.826,24.743c10.096,0,12.465,5.364,12.674,9.864
				c-0.022,0.333-0.258,2.741-1.514,4.938c-1.197,2.096-3.658,4.883-11.16,4.883h-59.527c-12.541,0-20.01,4.881-24.066,8.976
				c-8.376,8.453-8.612,19.621-8.611,20.866c-0.001,1.246,0.235,12.415,8.611,20.868c4.058,4.095,11.525,8.976,24.066,8.976h61.984
				c5.516,0,10-4.486,10-10c0-5.515-4.484-10-10-10h-61.984c-9.902,0-12.378-5.045-12.656-9.436l-0.003-0.001l-0.008-0.203
				c-0.003-0.053-0.005-0.104-0.007-0.157L99.727,77.5c-0.003-0.119,0.205-4.147,2.815-6.78c2.008-2.025,5.325-3.054,9.86-3.054
				L171.93,67.667L171.93,67.667z"/>
		</g>
		<g>
			<path fill="#FF9C31" d="M132.626,58.45c0.002-0.779-0.633-1.414-1.417-1.416c-0.783-0.003-1.421,0.635-1.419,1.418v9.215h2.837
				v-7.944L132.626,58.45z"/>
			<path fill="#FF9C31" d="M156.793,58.45c0.002-0.779-0.633-1.414-1.417-1.416c-0.783-0.003-1.421,0.635-1.419,1.418v9.215h2.837
				v-7.944L156.793,58.45z"/>
			<path fill="#FF9C31" d="M117.71,55.83V57.1c-0.001,0.782,0.634,1.418,1.417,1.416c0.781-0.002,1.418-0.634,1.417-1.414v-9.436
				h-2.837v8.165L117.71,55.83z"/>
			<path fill="#FF9C31" d="M141.876,55.831v1.271c-0.001,0.783,0.634,1.418,1.417,1.416c0.781-0.002,1.418-0.633,1.417-1.414v-9.437
				h-2.837v8.166L141.876,55.831z"/>
			<path fill="#FF9C31" d="M166.043,55.83V57.1c-0.001,0.782,0.634,1.418,1.417,1.416c0.781-0.002,1.418-0.634,1.417-1.414v-9.436
				h-2.837v8.165L166.043,55.83z"/>
			<path fill="#FF9C31" d="M132.626,98.027c0.002-0.778-0.633-1.414-1.417-1.416c-0.783-0.002-1.421,0.636-1.419,1.418v9.322h2.837
				v-8.054L132.626,98.027z"/>
			<path fill="#FF9C31" d="M117.71,95.406v1.271c-0.001,0.782,0.634,1.418,1.417,1.416c0.781-0.003,1.418-0.634,1.417-1.414v-9.327
				h-2.837v8.059L117.71,95.406z"/>
			<path fill="#FF9C31" d="M141.876,95.408v1.271c-0.001,0.782,0.634,1.418,1.417,1.416c0.781-0.003,1.418-0.634,1.417-1.414v-9.328
				h-2.837v8.06L141.876,95.408z"/>
			<path fill="#FF9C31" d="M166.316,14.141l-0.274,1.239c-0.171,0.767,0.312,1.521,1.077,1.688c0.763,0.167,1.521-0.312,1.689-1.072
				l1.789-8.062c-1.006-0.065-1.939-0.21-2.814-0.415l-1.469,6.621H166.316z"/>
			<path fill="#FF9C31" d="M194.75,30.177l-1.27,0.085c-0.776,0.05-1.369,0.725-1.317,1.508c0.05,0.781,0.728,1.375,1.509,1.32
				l10.378-0.688c-0.184-0.924-0.411-1.856-0.692-2.798L194.75,30.177z"/>
			<path fill="#FF9C31" d="M180.961,56.635c-0.234-0.743-1.033-1.155-1.779-0.92c-0.748,0.236-1.162,1.037-0.923,1.782l2.921,9.156
				c0.943-0.218,1.862-0.459,2.741-0.739l-2.573-8.067L180.961,56.635z"/>
			<path fill="#FF9C31" d="M183.557,22.382l0.549-1.145c0.34-0.704,0.027-1.561-0.697-1.904c-0.725-0.349-1.588-0.063-1.924,0.645
				l-4.166,8.673c1.033,0.29,1.931,0.662,2.701,1.104l3.539-7.371L183.557,22.382L183.557,22.382z"/>
			<path fill="#FF9C31" d="M187.193,48.062l0.896,0.896c0.554,0.556,1.451,0.556,2.003-0.001c0.553-0.555,0.557-1.45,0.004-2.002
				l-6.141-6.14c-0.215,0.637-0.491,1.309-0.867,1.968c-0.133,0.232-0.286,0.478-0.456,0.723l4.56,4.559L187.193,48.062z"/>
			<path fill="#FF9C31" d="M89.08,78.577c0.779,0.002,1.414-0.634,1.416-1.417s-0.635-1.422-1.418-1.419H79.81
				c-0.076,0.901-0.086,1.524-0.086,1.769c0,0.174,0.005,0.545,0.036,1.068h8.048L89.08,78.577z"/>
			<path fill="#FF9C31" d="M94.067,63.898c0.483,0.61,1.376,0.713,1.99,0.227c0.613-0.485,0.717-1.382,0.228-1.993l-5.87-7.371
				c-0.771,0.633-1.469,1.267-2.08,1.883c-0.009,0.009-0.017,0.02-0.026,0.026l4.964,6.234L94.067,63.898z"/>
			<path fill="#FF9C31" d="M104.958,97.739c0.225-0.746-0.22-1.541-0.991-1.772c-0.77-0.229-1.579,0.194-1.801,0.945l-2.507,8.439
				c0.886,0.305,1.813,0.584,2.792,0.829l2.146-7.223L104.958,97.739z"/>
			<path fill="#FF9C31" d="M108.989,60.345l-0.232-1.247c-0.143-0.771-0.883-1.279-1.652-1.134
				c-0.768,0.146-1.278,0.882-1.135,1.647l1.59,8.554c0.862-0.199,1.8-0.336,2.809-0.414l-1.378-7.407L108.989,60.345z"/>
			<path fill="#FF9C31" d="M94.013,86.313l-0.897,0.896c-0.555,0.554-0.555,1.451,0.001,2.004c0.554,0.552,1.45,0.556,2.002,0.002
				l6.246-6.245c-0.594-0.869-0.993-1.81-1.248-2.766l-6.106,6.105L94.013,86.313z"/>
			<path fill="#FF9C31" d="M155.236,12.524c0.477-0.618,0.359-1.507-0.26-1.986c-0.619-0.479-1.516-0.363-1.99,0.26l-5.74,7.464
				c0.666,0.669,1.372,1.306,2.102,1.923l5.114-6.649L155.236,12.524z"/>
		</g>
	</g>
	<g>
		<path fill="#652DAD" d="M159.214,56.304c-0.188-3.24-1.364-12.522-8.575-19.8c-2.427-2.447-6.104-5.159-11.326-6.958l0.004-0.017
			c-0.432-0.148-0.873-0.291-1.325-0.426c-0.032-0.01-0.065-0.02-0.099-0.028c-0.418-0.123-0.845-0.24-1.281-0.351
			c-0.028-0.007-0.057-0.017-0.086-0.023v0.003c-2.894-0.728-6.188-1.176-9.951-1.176h-17.389h-2.837h-41.76
			c-5.514,0-10,4.486-10,10c0,5.515,4.486,10,10,10h29.676h2.837h21.329h2.837h5.307c6.072,0,9.344,1.9,11.035,4.38v0.001
			c0.138,0.201,0.263,0.407,0.379,0.616c0.015,0.023,0.029,0.047,0.043,0.072c0.107,0.196,0.205,0.396,0.298,0.598
			c0.021,0.042,0.038,0.084,0.058,0.126c0.086,0.199,0.166,0.399,0.237,0.601c0.013,0.036,0.022,0.072,0.036,0.107
			c0.072,0.213,0.14,0.428,0.197,0.644v-0.001c0.203,0.765,0.322,1.537,0.371,2.291l0.004,0.001l0.009,0.203
			c0.003,0.054,0.005,0.104,0.007,0.158l0.002,0.054c0.001,0.119-0.207,4.147-2.816,6.78c-1.205,1.217-2.894,2.066-5.023,2.556
			c-0.411,0.096-0.842,0.175-1.286,0.241c-0.024,0.004-0.049,0.009-0.073,0.014c-0.445,0.064-0.91,0.115-1.39,0.153
			c-0.668,0.054-1.354,0.09-2.086,0.09H67.047c-3.39,0-6.451,0.381-9.247,1.028l-0.005-0.016c-0.455,0.104-0.904,0.216-1.346,0.334
			c-0.136,0.037-0.269,0.077-0.403,0.114c-0.334,0.095-0.669,0.188-0.993,0.291l0.005,0.018
			c-14.95,4.785-20.689,18.346-20.689,28.073c0,1.711,0.184,3.542,0.557,5.422c0,0.003,0.001,0.006,0.002,0.01
			c0.088,0.442,0.187,0.887,0.296,1.333c0.006,0.025,0.012,0.051,0.018,0.076c0.112,0.451,0.234,0.903,0.37,1.357
			c0.002,0.008,0.004,0.014,0.005,0.021c2.188,7.34,7.405,14.915,16.719,18.856h16.667h2.905h11.908h2.116h11.501
			c-1.563-2.694-3.462-5.232-5.714-7.498l0.01-0.014c-0.274-0.275-0.559-0.544-0.846-0.81c-0.262-0.242-0.529-0.479-0.8-0.715
			c-0.152-0.134-0.301-0.27-0.455-0.399l-0.004,0.006c-5.554-4.702-12.956-7.804-22.579-7.804c-2.13,0-3.898-0.25-5.393-0.669
			c-0.507-0.143-0.981-0.306-1.423-0.486c-0.014-0.006-0.028-0.011-0.042-0.017c-0.441-0.185-0.854-0.382-1.233-0.601
			c-3.405-1.951-4.448-5.195-4.583-8.092c0.018-0.233,0.146-1.489,0.647-2.973l0.001,0.001c0.102-0.302,0.221-0.612,0.355-0.926
			c0.009-0.021,0.017-0.043,0.026-0.064c0.142-0.324,0.301-0.652,0.486-0.977c0.133-0.233,0.286-0.477,0.456-0.723l-0.001-0.001
			c1.355-1.961,4.038-4.16,10.704-4.16h3.052h2.837h21.329H97.1h21.329h2.836h5.305c10.654,0,17.638-3.521,21.988-7.094v0.001
			c0.012-0.009,0.021-0.018,0.031-0.027c0.358-0.295,0.701-0.591,1.026-0.885c0.021-0.018,0.04-0.035,0.06-0.053
			c0.317-0.288,0.615-0.574,0.897-0.856c0.021-0.02,0.044-0.041,0.063-0.061c0.01-0.009,0.018-0.019,0.026-0.029
			c6.722-6.801,8.185-15.346,8.497-19.069c0.076-0.902,0.086-1.525,0.086-1.769C159.249,57.2,159.244,56.828,159.214,56.304z"/>
		<path fill="#652DAD" d="M90.084,115.097c0.271,0.234,0.538,0.473,0.8,0.715C90.624,115.568,90.353,115.333,90.084,115.097z"/>
		<path fill="#652DAD" d="M85.933,124.133h11.501c-1.563-2.694-3.462-5.232-5.714-7.497l-5.731,7.448
			C85.973,124.105,85.949,124.114,85.933,124.133z"/>
		<path fill="#652DAD" d="M35.224,103.822c-0.109-0.446-0.208-0.891-0.296-1.333C35.016,102.93,35.114,103.374,35.224,103.822z"/>
		<path fill="#652DAD" d="M138.387,53.323c-0.02-0.042-0.037-0.084-0.058-0.126C138.348,53.239,138.367,53.281,138.387,53.323z"/>
		<path fill="#652DAD" d="M138.66,54.031c-0.014-0.036-0.023-0.072-0.036-0.107C138.637,53.959,138.646,53.995,138.66,54.031z"/>
		<path fill="#652DAD" d="M60.188,105.728c0.014,0.006,0.027,0.011,0.042,0.017C60.216,105.739,60.202,105.734,60.188,105.728z"/>
		<path fill="#652DAD" d="M130.05,66.97c0.024-0.005,0.048-0.01,0.073-0.014C130.098,66.962,130.074,66.967,130.05,66.97z"/>
		<path fill="#652DAD" d="M35.612,105.256c-0.135-0.453-0.258-0.906-0.37-1.357C35.354,104.35,35.477,104.802,35.612,105.256z"/>
		<path fill="#652DAD" d="M55.401,93.074c-0.009,0.021-0.017,0.043-0.026,0.064C55.384,93.117,55.392,93.096,55.401,93.074z"/>
		<path fill="#652DAD" d="M149.898,59.141c-0.783,0.002-1.42-0.637-1.418-1.419c0.002-0.784,0.637-1.419,1.416-1.417l1.271-0.001
			h8.047c-0.188-3.24-1.364-12.522-8.575-19.8c-2.629-2.652-6.701-5.628-12.647-7.399c0.452,0.135,0.896,0.276,1.325,0.426
			l-2.508,8.44c-0.221,0.751-1.029,1.174-1.8,0.944c-0.772-0.231-1.216-1.025-0.991-1.772l0.361-1.22l2.146-7.222
			c0.468,0.117,0.922,0.242,1.367,0.374c-3.209-0.946-6.949-1.547-11.319-1.547h-17.389v9.322c0.002,0.782-0.636,1.42-1.419,1.418
			c-0.784-0.002-1.419-0.638-1.417-1.416l-0.001-1.271V27.53H64.588c-5.514,0-10,4.486-10,10c0,5.515,4.486,10,10,10h29.676v-9.327
			c-0.001-0.781,0.636-1.412,1.417-1.414c0.783-0.002,1.418,0.633,1.417,1.416v1.271l0.003-0.003v8.059h21.329v-9.326
			c-0.001-0.781,0.636-1.412,1.417-1.414c0.783-0.002,1.418,0.633,1.417,1.416v1.271l0.004-0.003v8.058h5.308
			c6.071,0,9.344,1.9,11.036,4.38l6.244-6.245c0.553-0.554,1.447-0.549,2.002,0.002c0.557,0.554,0.557,1.451,0,2.004l-0.896,0.896
			l0.003,0.002l-6.105,6.104c0.203,0.765,0.322,1.537,0.371,2.291l0.004,0.001l0.009,0.203c0.003,0.054,0.005,0.104,0.007,0.158
			l0.002,0.054c0.001,0.119-0.207,4.147-2.816,6.78c-1.205,1.217-2.894,2.066-5.023,2.557c0.002,0,0.004,0,0.006-0.002l1.59,8.554
			c0.145,0.768-0.365,1.503-1.135,1.647c-0.77,0.146-1.51-0.361-1.65-1.133l-0.232-1.247l-0.002,0.001l-1.377-7.408
			c0.019-0.001,0.033-0.004,0.053-0.006c-0.668,0.054-1.355,0.09-2.086,0.09H67.047c-3.938,0-7.456,0.489-10.598,1.348
			c0.442-0.118,0.891-0.229,1.346-0.334l2.92,9.157c0.24,0.744-0.175,1.546-0.921,1.781c-0.748,0.235-1.546-0.177-1.78-0.919
			l-0.388-1.212l-2.573-8.067c0.324-0.104,0.659-0.197,0.993-0.291c-15.69,4.49-21.677,18.439-21.677,28.38
			c0,1.711,0.184,3.542,0.557,5.422l10.378-0.688c0.781-0.055,1.459,0.54,1.509,1.32c0.05,0.783-0.541,1.458-1.319,1.509
			l-1.269,0.085l-8.608,0.57c2.188,7.34,7.405,14.915,16.719,18.856h16.667l1.165-5.248c0.168-0.762,0.925-1.239,1.689-1.072
			s1.247,0.923,1.077,1.688l-0.275,1.239l0.002-0.001l-0.753,3.394h11.908c-0.433-0.5-0.494-1.233-0.076-1.775l0.774-1.009
			l5.11-6.646c-5.554-4.702-12.956-7.804-22.579-7.804c-2.13,0-3.898-0.25-5.393-0.669c0.001,0,0.001,0.001,0.002,0.001
			l-4.165,8.673c-0.336,0.706-1.2,0.992-1.923,0.645c-0.727-0.344-1.039-1.199-0.7-1.904l0.551-1.145h-0.004l3.54-7.372
			c-3.405-1.95-4.448-5.195-4.583-8.092c0.018-0.232,0.146-1.489,0.647-2.973l-6.139-6.139c-0.553-0.552-0.549-1.447,0.002-2.002
			c0.553-0.556,1.45-0.556,2.004-0.001l0.897,0.896h0.001v-0.003l4.558,4.559c1.355-1.961,4.038-4.16,10.704-4.16h3.052V77.78
			c-0.001-0.78,0.636-1.411,1.417-1.413c0.783-0.003,1.418,0.633,1.417,1.415v1.271l0.003-0.002v8.164h21.329v-9.437
			c-0.001-0.78,0.636-1.411,1.417-1.414c0.783-0.002,1.418,0.634,1.417,1.416v1.271l0.003-0.003v8.166h21.329V77.78
			c-0.001-0.78,0.636-1.411,1.417-1.413c0.783-0.003,1.418,0.633,1.417,1.415v1.271l0.004-0.002v8.164h5.305
			c10.654,0,17.638-3.521,21.988-7.094l-5.869-7.371c-0.488-0.61-0.387-1.507,0.229-1.993c0.614-0.486,1.507-0.385,1.99,0.227
			l0.794,0.994l4.963,6.233c6.722-6.801,8.185-15.346,8.497-19.069L149.898,59.141L149.898,59.141z M85.018,76.43
			c0.002,0.782-0.636,1.42-1.419,1.418c-0.784-0.002-1.419-0.638-1.417-1.416l-0.001-1.271v-7.945h2.837V76.43z M109.184,76.43
			c0.002,0.782-0.636,1.42-1.419,1.418c-0.784-0.002-1.419-0.638-1.417-1.416l-0.001-1.271v-7.945h2.837V76.43z"/>
		<path fill="#652DAD" d="M149.618,79.21c-0.325,0.294-0.668,0.589-1.026,0.886C148.951,79.8,149.295,79.505,149.618,79.21z"/>
		<path fill="#652DAD" d="M150.575,78.302c-0.282,0.282-0.58,0.567-0.897,0.855C149.992,78.869,150.294,78.583,150.575,78.302z"/>
		<path fill="#652DAD" d="M138.031,52.599c-0.014-0.024-0.028-0.048-0.043-0.072C138.003,52.552,138.018,52.574,138.031,52.599z"/>
		<path fill="#7432C7" d="M106.347,75.16l0.001,1.271c-0.002,0.778,0.633,1.414,1.417,1.416c0.783,0.002,1.421-0.636,1.419-1.418
			v-9.216h-2.837V75.16z"/>
		<path fill="#7432C7" d="M82.181,75.16l0.001,1.271c-0.002,0.778,0.633,1.414,1.417,1.416c0.783,0.002,1.421-0.636,1.419-1.418
			v-9.216h-2.837V75.16z"/>
		<path fill="#7432C7" d="M121.264,79.052v-1.271c0.002-0.782-0.634-1.418-1.417-1.415c-0.781,0.002-1.418,0.633-1.417,1.413v9.436
			h2.837V79.05L121.264,79.052z"/>
		<path fill="#7432C7" d="M97.098,79.052V77.78c0.001-0.782-0.634-1.418-1.417-1.416c-0.781,0.003-1.418,0.634-1.417,1.414v9.437
			h2.837v-8.166L97.098,79.052z"/>
		<path fill="#7432C7" d="M72.932,79.052v-1.271c0.001-0.782-0.634-1.418-1.417-1.415c-0.781,0.002-1.418,0.633-1.417,1.413v9.436
			h2.837V79.05L72.932,79.052z"/>
		<path fill="#7432C7" d="M106.348,36.854c-0.002,0.778,0.633,1.414,1.417,1.416c0.783,0.002,1.421-0.635,1.419-1.418V27.53h-2.837
			v8.054L106.348,36.854z"/>
		<path fill="#7432C7" d="M121.264,39.475v-1.271c0.002-0.783-0.634-1.418-1.417-1.416c-0.781,0.002-1.418,0.633-1.417,1.414v9.326
			h2.837v-8.058L121.264,39.475z"/>
		<path fill="#7432C7" d="M97.098,39.474v-1.271c0.001-0.783-0.634-1.418-1.417-1.416c-0.781,0.002-1.418,0.633-1.417,1.414v9.327
			h2.837V39.47L97.098,39.474z"/>
		<path fill="#7432C7" d="M72.661,120.74l-0.002,0.001l0.275-1.239c0.17-0.767-0.313-1.521-1.077-1.688s-1.521,0.312-1.689,1.073
			l-1.165,5.247h2.905L72.661,120.74z"/>
		<path fill="#7432C7" d="M34.926,102.479l0.002,0.01L34.926,102.479z"/>
		<path fill="#7432C7" d="M35.617,105.276L35.617,105.276c-0.001-0.007-0.003-0.013-0.005-0.021
			C35.614,105.263,35.615,105.269,35.617,105.276z"/>
		<path fill="#7432C7" d="M35.242,103.898c-0.006-0.025-0.012-0.051-0.018-0.076C35.23,103.847,35.236,103.872,35.242,103.898z"/>
		<path fill="#7432C7" d="M45.494,104.62c0.778-0.051,1.369-0.726,1.319-1.509c-0.05-0.78-0.728-1.375-1.509-1.32l-10.378,0.688
			c0.001,0.003,0.001,0.006,0.002,0.01c0.088,0.442,0.187,0.887,0.296,1.333c0.006,0.025,0.012,0.051,0.018,0.076
			c0.112,0.451,0.234,0.904,0.37,1.357c0.002,0.008,0.004,0.014,0.005,0.021l8.608-0.57L45.494,104.62z"/>
		<path fill="#7432C7" d="M56.046,68.677c0.134-0.039,0.267-0.079,0.403-0.115C56.312,68.597,56.181,68.639,56.046,68.677z"/>
		<path fill="#7432C7" d="M57.626,77.035l0.388,1.212c0.234,0.742,1.032,1.154,1.78,0.919c0.746-0.235,1.161-1.037,0.921-1.781
			l-2.92-9.157c-0.455,0.104-0.904,0.216-1.346,0.334c-0.136,0.037-0.269,0.077-0.403,0.115c-0.334,0.094-0.669,0.187-0.993,0.29
			L57.626,77.035z"/>
		<path fill="#7432C7" d="M58.955,105.128L58.955,105.128c0.38,0.219,0.792,0.416,1.233,0.601
			C59.746,105.545,59.335,105.346,58.955,105.128z"/>
		<path fill="#7432C7" d="M60.23,105.744c0.442,0.183,0.916,0.345,1.423,0.486C61.146,106.088,60.673,105.925,60.23,105.744z"/>
		<path fill="#7432C7" d="M55.419,112.5l-0.551,1.145c-0.339,0.705-0.027,1.562,0.7,1.904c0.723,0.349,1.587,0.063,1.923-0.645
			l4.165-8.673c-0.001,0-0.001-0.001-0.002-0.001c-0.507-0.143-0.981-0.306-1.423-0.486c-0.014-0.006-0.028-0.011-0.042-0.017
			c-0.441-0.185-0.854-0.382-1.233-0.601l-3.54,7.372L55.419,112.5L55.419,112.5z"/>
		<path fill="#7432C7" d="M55.02,94.065c0.102-0.302,0.221-0.612,0.355-0.926C55.238,93.453,55.122,93.762,55.02,94.065
			L55.02,94.065z"/>
		<path fill="#7432C7" d="M55.401,93.074c0.142-0.324,0.301-0.652,0.486-0.977c0.133-0.233,0.286-0.477,0.456-0.723l-0.001-0.001
			c-0.17,0.246-0.322,0.489-0.456,0.724C55.701,92.422,55.544,92.749,55.401,93.074z"/>
		<path fill="#7432C7" d="M51.784,86.82L51.784,86.82l-0.898-0.896c-0.554-0.555-1.451-0.555-2.004,0.001
			c-0.551,0.555-0.555,1.45-0.002,2.003l6.139,6.138c0.103-0.302,0.219-0.61,0.356-0.925c0.009-0.021,0.017-0.043,0.026-0.064
			c0.144-0.325,0.3-0.652,0.485-0.977c0.133-0.233,0.286-0.478,0.456-0.724l-4.558-4.559V86.82z"/>
		<path fill="#7432C7" d="M159.163,59.141h0.003c0.076-0.902,0.085-1.523,0.085-1.769c-0.001-0.175-0.006-0.545-0.036-1.068h-0.001
			c0.03,0.523,0.035,0.896,0.035,1.068C159.249,57.616,159.238,58.239,159.163,59.141z"/>
		<path fill="#7432C7" d="M149.896,56.305c-0.779-0.002-1.414,0.633-1.416,1.417c-0.002,0.782,0.635,1.421,1.418,1.419h9.265
			c0.075-0.902,0.086-1.525,0.086-1.769c0-0.173-0.005-0.545-0.035-1.068h-8.047L149.896,56.305z"/>
		<path fill="#7432C7" d="M148.561,80.122c0.012-0.009,0.021-0.018,0.031-0.026C148.581,80.104,148.57,80.113,148.561,80.122
			L148.561,80.122z"/>
		<path fill="#7432C7" d="M150.575,78.302c0.021-0.021,0.045-0.042,0.065-0.063c0.01-0.009,0.018-0.019,0.025-0.026l-0.001-0.001
			c-0.011,0.011-0.019,0.021-0.026,0.029C150.619,78.26,150.596,78.281,150.575,78.302z"/>
		<path fill="#7432C7" d="M149.678,79.157c-0.02,0.018-0.039,0.036-0.06,0.053C149.639,79.193,149.658,79.175,149.678,79.157z"/>
		<path fill="#7432C7" d="M144.909,70.983c-0.483-0.61-1.376-0.713-1.99-0.227s-0.717,1.383-0.228,1.993l5.867,7.371
			c0.012-0.009,0.021-0.018,0.032-0.025c0.358-0.296,0.701-0.592,1.026-0.886c0.02-0.018,0.04-0.035,0.06-0.053
			c0.317-0.288,0.615-0.574,0.897-0.855c0.021-0.021,0.044-0.041,0.063-0.062c0.01-0.009,0.018-0.019,0.027-0.029l-4.963-6.233
			L144.909,70.983z"/>
		<path fill="#7432C7" d="M137.893,29.076c0.032,0.009,0.065,0.02,0.099,0.028C137.958,29.095,137.925,29.086,137.893,29.076z"/>
		<path fill="#7432C7" d="M134.379,35.924l-0.361,1.22c-0.225,0.747,0.219,1.541,0.991,1.772c0.771,0.229,1.579-0.193,1.8-0.944
			l2.508-8.44c-0.432-0.148-0.873-0.291-1.325-0.426c-0.032-0.01-0.065-0.02-0.099-0.028c-0.445-0.132-0.898-0.257-1.367-0.374
			L134.379,35.924z"/>
		<path fill="#7432C7" d="M128.66,67.124c0.479-0.038,0.943-0.088,1.39-0.153C129.604,67.035,129.139,67.086,128.66,67.124z"/>
		<path fill="#7432C7" d="M130.123,66.958c0.443-0.066,0.875-0.146,1.286-0.241C130.998,66.812,130.566,66.891,130.123,66.958z"/>
		<path fill="#7432C7" d="M129.984,74.538l0.002-0.001l0.231,1.247c0.144,0.771,0.884,1.278,1.651,1.133
			c0.768-0.145,1.277-0.881,1.135-1.647l-1.59-8.554c-0.002,0-0.004,0.001-0.006,0.001c-0.411,0.096-0.842,0.175-1.286,0.241
			c-0.024,0.004-0.049,0.009-0.073,0.014c-0.445,0.064-0.91,0.115-1.39,0.153c-0.019,0.001-0.034,0.004-0.054,0.006L129.984,74.538z
			"/>
		<path fill="#7432C7" d="M138.329,53.197c-0.093-0.202-0.19-0.401-0.298-0.598C138.141,52.795,138.236,52.995,138.329,53.197z"/>
		<path fill="#7432C7" d="M138.857,54.675L138.857,54.675c-0.058-0.216-0.125-0.431-0.197-0.644
			C138.732,54.244,138.8,54.459,138.857,54.675z"/>
		<path fill="#7432C7" d="M138.624,53.924c-0.072-0.201-0.151-0.401-0.238-0.601C138.473,53.521,138.552,53.721,138.624,53.924z"/>
		<path fill="#7432C7" d="M137.609,51.911c0.138,0.201,0.263,0.407,0.379,0.616C137.872,52.319,137.748,52.112,137.609,51.911
			L137.609,51.911z"/>
		<path fill="#7432C7" d="M144.961,48.568l0.896-0.896c0.556-0.553,0.556-1.45,0-2.004c-0.556-0.551-1.45-0.556-2.002-0.002
			l-6.246,6.245c0.139,0.202,0.263,0.409,0.379,0.617c0.015,0.024,0.029,0.047,0.043,0.072c0.107,0.196,0.205,0.396,0.298,0.598
			c0.021,0.042,0.038,0.084,0.058,0.126c0.086,0.199,0.166,0.399,0.237,0.601c0.013,0.036,0.022,0.072,0.036,0.107
			c0.072,0.213,0.141,0.428,0.197,0.643l6.105-6.104L144.961,48.568z"/>
		<path fill="#7432C7" d="M91.73,116.621c-0.274-0.275-0.559-0.544-0.846-0.81c0.286,0.269,0.561,0.546,0.836,0.823L91.73,116.621z"
			/>
		<path fill="#7432C7" d="M89.629,114.698l-0.004,0.006c0.154,0.13,0.309,0.261,0.459,0.395
			C89.932,114.964,89.783,114.828,89.629,114.698z"/>
		<path fill="#7432C7" d="M83.74,122.357c-0.418,0.542-0.357,1.275,0.076,1.775h2.116c0.017-0.02,0.041-0.027,0.056-0.049
			l5.731-7.448c-0.275-0.277-0.55-0.556-0.836-0.823c-0.262-0.242-0.529-0.479-0.8-0.715c-0.151-0.134-0.306-0.265-0.459-0.395
			l-5.11,6.646L83.74,122.357z"/>
	</g>
	<g>
		<g>
			<polygon fill="#FFCD31" points="64.92,38.665 42.888,38.665 40.129,35.91 41.464,34.572 43.67,36.774 64.92,36.774 			"/>
		</g>
		<path fill="#652DAD" d="M92.724,36.265c0-8.359-6.787-15.146-15.145-15.146H64.634c-8.359,0-15.145,6.785-15.145,15.146
			c0,8.36,6.786,15.146,15.145,15.146h12.945C85.937,51.41,92.724,44.625,92.724,36.265L92.724,36.265z"/>
		<path fill="#FFCD31" d="M67.352,29.663c1.43,0,2.589,1.158,2.589,2.589c0,1.429-1.16,2.589-2.589,2.589
			c-1.429,0-2.588-1.16-2.588-2.589C64.764,30.822,65.923,29.663,67.352,29.663L67.352,29.663z"/>
		<g>
			
				<rect x="41.047" y="37.185" transform="matrix(0.7063 0.7079 -0.7079 0.7063 39.942 -18.271)" fill="#FFCD31" width="1.89" height="3.637"/>
		</g>
	</g>
	<g>
		<g>
			<polygon fill="#FF9C31" points="197.512,98.337 195.305,96.135 174.055,96.135 174.055,94.244 196.087,94.244 198.846,96.999 			
				"/>
		</g>
		<path fill="#FFCD31" d="M146.251,96.645c0,8.358,6.787,15.146,15.146,15.146h12.944c8.359,0,15.146-6.787,15.146-15.146
			s-6.785-15.146-15.146-15.146h-12.944C153.038,81.499,146.251,88.285,146.251,96.645L146.251,96.645z"/>
		<path fill="#652DAD" d="M171.622,103.246c-1.429,0-2.588-1.159-2.588-2.588c0-1.43,1.159-2.591,2.588-2.591
			c1.43,0,2.589,1.161,2.589,2.591C174.211,102.087,173.052,103.246,171.622,103.246L171.622,103.246z"/>
		<g>
			
				<rect x="196.037" y="92.087" transform="matrix(0.7063 0.7079 -0.7079 0.7063 124.3211 -111.8629)" fill="#FF9C31" width="1.89" height="3.636"/>
		</g>
	</g>
	<g>
		<path fill="#FFCD31" d="M97.072,50.673c-2.701,1.2-4.893,2.64-6.657,4.086l5.87,7.372c0.489,0.611,0.386,1.508-0.228,1.993
			c-0.614,0.486-1.507,0.387-1.99-0.227l-0.793-0.994l-4.964-6.234c-6.722,6.804-8.185,15.349-8.5,19.071h9.268
			c0.783-0.002,1.42,0.637,1.418,1.42s-0.637,1.419-1.416,1.417l-1.271,0.001H79.76c0.188,3.239,1.366,12.521,8.576,19.799
			c1.042,1.052,2.313,2.152,3.832,3.212l19.362-14.267c-5.505-0.178-8.558-1.996-10.166-4.353l-6.246,6.245
			c-0.552,0.554-1.448,0.55-2.002-0.002c-0.556-0.553-0.556-1.45-0.001-2.004l0.897-0.896l-0.003-0.001l6.106-6.105
			c-0.204-0.764-0.323-1.535-0.371-2.289l-0.003-0.001l-0.008-0.203c-0.003-0.053-0.005-0.104-0.007-0.157l-0.002-0.055
			c-0.003-0.119,0.205-4.147,2.815-6.78c1.205-1.216,2.891-2.063,5.018-2.555l-1.59-8.554c-0.144-0.768,0.367-1.504,1.135-1.647
			c0.77-0.146,1.51,0.362,1.652,1.134l0.232,1.247l0.002-0.001l1.378,7.407c0.651-0.051,1.322-0.085,2.033-0.085h10.397
			l-15.184-12.603L97.072,50.673z"/>
		<path fill="#FF9C31" d="M79.76,78.578h8.048l1.271-0.001c0.779,0.002,1.414-0.634,1.416-1.417s-0.635-1.422-1.418-1.419H79.81
			c-0.076,0.901-0.086,1.524-0.086,1.769C79.724,77.683,79.729,78.054,79.76,78.578z"/>
		<path fill="#FF9C31" d="M88.31,56.669l4.964,6.234l0.793,0.994c0.483,0.61,1.376,0.713,1.99,0.227
			c0.613-0.485,0.717-1.382,0.228-1.993l-5.87-7.372c-0.771,0.634-1.469,1.268-2.08,1.884C88.327,56.65,88.318,56.66,88.31,56.669z"
			/>
		<path fill="#FF9C31" d="M108.991,60.344l-0.002,0.001l-0.232-1.247c-0.143-0.771-0.883-1.279-1.652-1.134
			c-0.768,0.146-1.278,0.882-1.135,1.647l1.59,8.554c0.862-0.199,1.8-0.336,2.809-0.414L108.991,60.344z"/>
		<path fill="#FF9C31" d="M94.01,86.313l0.003,0.001l-0.897,0.896c-0.555,0.554-0.555,1.451,0.001,2.004
			c0.554,0.552,1.45,0.556,2.002,0.002l6.246-6.245c-0.594-0.869-0.993-1.81-1.248-2.766L94.01,86.313z"/>
	</g>
	<path fill="#652DAD" d="M123.361,67.215l-10.5-0.021c0,0-6.833,0-10.32,3.525c0,0,2.737-2.358,6.643-2.608
		c1.329-0.085,5.261,0.833,5.261,0.833l9.25-0.75L123.361,67.215z"/>
	<g>
		<polygon fill="#652DAD" points="4.313,147.988 0.027,147.988 0.027,153.987 4.313,153.987 		"/>
		<g>
			<path fill="none" d="M26.252,124.99h186.857c1.656,0,3-1.344,3-3V13c0-1.655-1.344-3-3-3H26.252c-1.656,0-3,1.345-3,3v108.99
				C23.252,123.646,24.596,124.99,26.252,124.99z"/>
			<path fill="#652DAD" d="M239.34,147.988c-0.089-1.602-0.679-3.188-1.803-4.5l-6.225-7.261c-1.275-1.487-2.822-2.675-4.525-3.553
				c0.02-0.228,0.035-0.454,0.035-0.688V8c0-4.414-3.584-8-8-8H20.537c-4.416,0-8,3.586-8,8v123.988c0,0.232,0.015,0.46,0.035,0.688
				c-1.702,0.877-3.248,2.063-4.523,3.551l-6.227,7.261C0.646,144.861,0,146.609,0,148.416c0,0.688,0.1,1.354,0.273,1.988
				C0.094,151.056,0,151.731,0,152.417c0,4.183,3.391,7.569,7.572,7.569h224.217c1.807,0,3.555-0.646,4.926-1.821
				c1.314-1.126,2.141-2.605,2.473-4.179h0.156v-1.191v-0.752v-3.248v-0.751v-0.057L239.34,147.988L239.34,147.988z
				 M122.215,127.989h13.537v2h-13.537h-4h-13.533v-2h13.533H122.215z M230.791,146.855c0,0.24-0.1,0.469-0.275,0.633
				c-1.037,0.966-2.398,1.5-3.813,1.5h-26.864l-1.677-3h31.768C230.404,145.988,230.791,146.377,230.791,146.855z M46.841,145.988
				h35.334l-0.699,3H44.745L46.841,145.988z M51.034,139.988h32.539l-0.699,3H48.938L51.034,139.988z M54.528,134.989l0.699-1
				h29.744l-0.233,1l-0.466,2H53.13L54.528,134.989z M187.428,134.989l1.118,2h-32.014l-0.56-2l-0.279-1h31.176L187.428,134.989z
				 M191.9,142.988h-33.691l-0.839-3h32.853L191.9,142.988z M87.68,139.988h30.535v3H86.981L87.68,139.988z M122.215,139.988h31.002
				l0.838,3h-31.841L122.215,139.988L122.215,139.988z M151.82,134.989l0.559,2h-30.164v-2v-1h29.326L151.82,134.989z
				 M118.215,134.989v2H88.378l0.466-2l0.233-1h29.138V134.989z M86.282,145.988h31.933v3H85.583L86.282,145.988z M122.215,145.988
				h32.68l0.838,3h-33.519L122.215,145.988L122.215,145.988z M159.887,148.988l-0.839-3h34.53l1.677,3H159.887z M227.844,141.488
				c0.299,0.439,0.186,1.035-0.254,1.334c-0.158,0.109-0.348,0.166-0.539,0.166h-30.568l-1.676-3h24.018h6.186
				C226.145,139.988,227.205,140.552,227.844,141.488z M223.566,135.489c0.291,0.451,0.162,1.054-0.287,1.345
				c-0.158,0.104-0.342,0.155-0.529,0.155h-29.621l-1.118-2l-0.559-1h29.356c1.096,0,2.11,0.553,2.721,1.456
				C223.541,135.462,223.557,135.473,223.566,135.489z M50.347,133.989l-0.699,1l-1.398,2H17.973c-0.484,0-0.877-0.391-0.877-0.875
				c0-0.235,0.094-0.459,0.26-0.625c0.158-0.154,0.337-0.28,0.511-0.413c0.901-0.688,1.996-1.087,3.142-1.087H50.347z
				 M20.537,139.988h25.617l-2.097,3H11.535c-0.48,0-0.869-0.387-0.869-0.866c0-0.237,0.1-0.47,0.275-0.634
				c1.025-0.963,2.379-1.5,3.787-1.5H20.537z M10.145,145.988h31.817l-2.097,3H12.164c-1.131,0-2.186-0.561-2.818-1.5
				c-0.297-0.438-0.182-1.039,0.26-1.336C9.766,146.047,9.951,145.988,10.145,145.988z M23.252,13c0-1.655,1.344-3,3-3h186.857
				c1.656,0,3,1.345,3,3v108.99c0,1.656-1.344,3-3,3H26.252c-1.656,0-3-1.344-3-3V13z"/>
		</g>
	</g>
</g>
</svg>
