<?xml version="1.0" encoding="utf-8"?>
<!-- Generator: Adobe Illustrator 16.0.0, SVG Export Plug-In . SVG Version: 6.00 Build 0)  -->
<!DOCTYPE svg PUBLIC "-//W3C//DTD SVG 1.1//EN" "http://www.w3.org/Graphics/SVG/1.1/DTD/svg11.dtd">
<svg version="1.1" id="Слой_1" xmlns="http://www.w3.org/2000/svg" xmlns:xlink="http://www.w3.org/1999/xlink" x="0px" y="0px"
	 width="239.945px" height="160px" viewBox="0 0 239.945 160" enable-background="new 0 0 239.945 160" xml:space="preserve">
<g>
	<path fill-rule="evenodd" clip-rule="evenodd" fill="#652DAD" d="M238.117,143.501l-6.249-7.273
		c-1.278-1.485-2.816-2.689-4.52-3.564c0.019-0.221,0.028-0.442,0.028-0.667V8.005c0-4.421-3.584-8.005-8.005-8.005H20.572
		c-4.421,0-8.003,3.584-8.003,8.005v123.991c0,0.225,0.009,0.446,0.027,0.667c-1.703,0.875-3.242,2.079-4.519,3.564l-6.249,7.273
		C0.648,144.873,0,146.623,0,148.433c0,0.22,0.009,0.437,0.028,0.651v2.702C0.009,152.001,0,152.217,0,152.433
		c0,0.22,0.009,0.438,0.028,0.651V154h0.135c0.722,3.428,3.763,6,7.405,6h224.808c1.811,0,3.56-0.648,4.932-1.827
		c1.311-1.126,2.142-2.603,2.472-4.173h0.146v-1.04c0.024-0.353,0.024-0.708,0-1.062v-2.938
		C240.06,147.043,239.468,145.073,238.117,143.501z M221.35,134.001c1.115,0,2.154,0.563,2.761,1.5
		c0.292,0.45,0.164,1.052-0.286,1.343c-0.158,0.103-0.341,0.157-0.529,0.157h-29.697l-1.681-3H221.35z M23.309,13.002
		c0-1.657,1.345-3.002,3.001-3.002h187.324c1.656,0,3.001,1.345,3.001,3.002v108.997c0,1.656-1.345,3.001-3.001,3.001H26.31
		c-1.656,0-3.001-1.345-3.001-3.001V13.002z M153.59,140.001l0.84,3h-31.917v-3H153.59z M122.514,137.001v-3h29.396l0.84,3H122.514z
		 M17.398,135.501c0.976-0.961,2.29-1.5,3.66-1.5h29.411l-2.102,3H18.013c-0.483,0-0.876-0.393-0.876-0.877
		C17.137,135.89,17.231,135.665,17.398,135.501z M39.962,149.001h-27.77c-1.133,0-2.19-0.563-2.824-1.501
		c-0.298-0.439-0.182-1.038,0.259-1.335c0.159-0.107,0.347-0.164,0.539-0.164h31.897L39.962,149.001z M11.561,143.001
		c-0.479,0-0.868-0.389-0.868-0.867c0-0.24,0.099-0.469,0.274-0.634c1.029-0.963,2.385-1.499,3.794-1.499h31.504l-2.102,3H11.561z
		 M81.677,149.001H44.854l2.102-3h35.421L81.677,149.001z M83.077,143.001H49.057l2.102-3h32.619L83.077,143.001z M84.479,137.001
		H53.26l2.101-3h29.818L84.479,137.001z M118.505,149.001H85.793l0.701-3h32.01V149.001z M118.505,143.001H87.194l0.701-3h30.609
		V143.001z M118.505,137.001h-29.91l0.7-3h29.209V137.001z M122.514,149.001v-3h32.758l0.841,3H122.514z M156.073,134.001h31.251
		l1.681,3h-32.092L156.073,134.001z M157.754,140.001h32.932l1.681,3h-33.773L157.754,140.001z M160.276,149.001l-0.841-3h34.613
		l1.681,3H160.276z M195.28,140.001h30.281c1.136,0,2.198,0.561,2.838,1.499c0.298,0.438,0.187,1.035-0.251,1.334
		c-0.16,0.108-0.349,0.167-0.542,0.167h-30.646L195.28,140.001z M231.078,147.5c-1.039,0.965-2.405,1.501-3.822,1.501h-26.932
		l-1.681-3h31.845c0.478,0,0.866,0.388,0.866,0.865C231.354,147.107,231.253,147.336,231.078,147.5z"/>
	<polygon fill="#FFCD31" points="216.749,23.278 216.749,43.125 159.128,43.125 159.128,23.278 216.749,23.278 	"/>
	<path fill-rule="evenodd" clip-rule="evenodd" fill="#FFCD31" d="M50.813,10.477c-1.529,10.657-6.822,14.393-6.822,22.446
		c0,9.413,8.11,12.801,12.888,8.911c-7.544,9.035-24.519,0.118-24.519-12.558c0-10.188,2.112-12.02,2.941-18.799H50.813
		L50.813,10.477z"/>
	<g>
		<g>
			<polygon fill="#FF9C31" points="162.633,33.901 140.571,33.901 137.808,31.143 139.143,29.805 141.353,32.011 162.633,32.011 			
				"/>
		</g>
	</g>
	<path fill-rule="evenodd" clip-rule="evenodd" fill="#FFCD31" d="M190.475,31.499c0-8.371-6.795-15.166-15.166-15.166h-12.963
		c-8.371,0-15.166,6.795-15.166,15.166s6.795,15.166,15.166,15.166h12.963C183.679,46.665,190.475,39.87,190.475,31.499
		L190.475,31.499z"/>
	<path fill-rule="evenodd" clip-rule="evenodd" fill="#652DAD" d="M165.068,24.888c1.431,0,2.593,1.162,2.593,2.593
		c0,1.431-1.162,2.592-2.593,2.592s-2.592-1.162-2.592-2.592C162.476,26.05,163.637,24.888,165.068,24.888L165.068,24.888z"/>
	<g>
		<g>
			
				<rect x="138.728" y="32.421" transform="matrix(0.7063 0.7079 -0.7079 0.7063 65.2571 -88.8159)" fill="#FF9C31" width="1.89" height="3.642"/>
		</g>
	</g>
	<path fill="#FFCD31" d="M216.219,58.984v19.884h-63.063c-5.074,0-9.188,4.122-9.188,9.207c0,5.084,4.114,9.205,9.188,9.205h63.063
		v19.886h-63.063c-16.035,0-29.035-13.025-29.035-29.091c0-16.067,13-29.091,29.035-29.091H216.219L216.219,58.984z"/>
	<path fill="#FFCD31" d="M37.989,124.874V98.97c0-16.036,13.024-29.036,29.091-29.036s29.091,13,29.091,29.036v25.904H76.286V98.97
		c0-5.075-4.122-9.189-9.207-9.189s-9.206,4.114-9.206,9.189v25.904H37.989L37.989,124.874z"/>
	<path fill="#FFCD31" d="M127.816,10.006v27.749c0,16.036-13.024,29.036-29.091,29.036c-16.066,0-29.091-13-29.091-29.036V10.006
		H89.52v27.749c0,5.075,4.121,9.189,9.205,9.189c5.084,0,9.207-4.114,9.207-9.189V10.006H127.816L127.816,10.006z"/>
	<g>
		<g>
			<path fill="#FF9C31" d="M196.198,30.996c-0.812,0-1.47,0.658-1.47,1.47v10.66h2.94v-10.66
				C197.668,31.654,197.01,30.996,196.198,30.996z"/>
			<path fill="#FF9C31" d="M211.665,30.996c-0.812,0-1.47,0.658-1.47,1.47v10.66h2.94v-10.66
				C213.135,31.654,212.477,30.996,211.665,30.996z"/>
			<path fill="#FF9C31" d="M204.79,33.716c0.812,0,1.47-0.658,1.47-1.47v-8.968h-2.94v8.968
				C203.32,33.058,203.979,33.716,204.79,33.716z"/>
			<path fill="#FF9C31" d="M39.342,30.621c0.763-0.277,1.157-1.121,0.88-1.883c-0.277-0.764-1.121-1.155-1.883-0.88l-5.947,2.16
				c0.054,1.015,0.211,2.004,0.467,2.958L39.342,30.621z"/>
			<path fill="#FF9C31" d="M38.524,20.825c-0.07,0.809,0.528,1.521,1.337,1.592l6.814,0.595c0.421-0.914,0.859-1.849,1.292-2.838
				l-7.852-0.686C39.316,19.42,38.595,20.017,38.524,20.825z"/>
			<path fill="#FF9C31" d="M44.244,12.876c-0.196-0.789-0.997-1.269-1.781-1.072l-7.713,1.92c-0.25,1.147-0.528,2.185-0.806,3.23
				l9.229-2.297C43.96,14.462,44.44,13.664,44.244,12.876z"/>
			<path fill="#FF9C31" d="M83.879,96.315c0.157,0.679,0.761,1.139,1.43,1.139c0.11,0,0.221-0.012,0.333-0.038l10.256-2.373
				c-0.133-0.979-0.314-1.944-0.542-2.892l-10.376,2.4C84.189,94.734,83.696,95.524,83.879,96.315z"/>
			<path fill="#FF9C31" d="M86.155,117.954c-0.812,0-1.47,0.658-1.47,1.471s0.659,1.471,1.47,1.471h10.016v-2.941H86.155z"/>
			<path fill="#FF9C31" d="M87.405,107.149c0-0.812-0.658-1.47-1.47-1.47h-9.649v2.94h9.649
				C86.747,108.62,87.405,107.962,87.405,107.149z"/>
			<path fill="#FF9C31" d="M69.891,84.257c0.069,0.01,0.138,0.015,0.206,0.015c0.721,0,1.351-0.532,1.454-1.266l1.739-12.402
				c-0.951-0.207-1.918-0.367-2.902-0.478L68.64,82.597C68.527,83.401,69.087,84.145,69.891,84.257z"/>
			<path fill="#FF9C31" d="M61.042,81.144c-0.33-0.741-1.198-1.08-1.94-0.746c-0.742,0.329-1.076,1.198-0.747,1.939l3.915,8.809
				c0.83-0.509,1.744-0.892,2.72-1.118L61.042,81.144z"/>
			<path fill="#FF9C31" d="M79.773,85.923c-0.674-0.453-1.587-0.274-2.04,0.398l-4.143,6.153c0.744,0.743,1.353,1.618,1.808,2.579
				l4.773-7.09C80.625,87.29,80.447,86.376,79.773,85.923z"/>
			<path fill="#FF9C31" d="M48.853,96.538c-0.774-0.236-1.599,0.198-1.836,0.975s0.199,1.599,0.975,1.836l9.882,3.028v-3.075
				L48.853,96.538z"/>
			<path fill="#FF9C31" d="M46.952,119.915c0,0.813,0.658,1.471,1.47,1.471h9.452v-2.941h-9.452
				C47.61,118.444,46.952,119.103,46.952,119.915z"/>
			<path fill="#FF9C31" d="M51.264,89.484c0.41,0,0.818-0.171,1.109-0.506c0.533-0.611,0.47-1.54-0.143-2.073l-7.493-6.527
				c-0.63,0.753-1.225,1.537-1.777,2.353l7.339,6.392C50.577,89.365,50.921,89.484,51.264,89.484z"/>
			<path fill="#FF9C31" d="M49.671,107.641c0-0.812-0.658-1.47-1.47-1.47H37.989v2.94h10.212
				C49.013,109.111,49.671,108.453,49.671,107.641z"/>
			<path fill="#FF9C31" d="M78.4,29.574c0,0.812,0.658,1.47,1.47,1.47h9.649v-2.939H79.87C79.058,28.104,78.4,28.763,78.4,29.574z"
				/>
			<path fill="#FF9C31" d="M95.914,52.466c-0.801-0.109-1.546,0.448-1.66,1.251l-1.74,12.403c0.951,0.206,1.919,0.366,2.902,0.478
				l1.749-12.472C97.279,53.322,96.718,52.579,95.914,52.466z"/>
			<path fill="#FF9C31" d="M79.649,18.769c0.812,0,1.47-0.658,1.47-1.47s-0.658-1.47-1.47-1.47H69.634v2.939H79.649z"/>
			<path fill="#FF9C31" d="M81.926,40.409c-0.183-0.792-0.976-1.287-1.763-1.101L69.906,41.68c0.133,0.98,0.314,1.945,0.542,2.892
				l10.377-2.4C81.616,41.989,82.109,41.2,81.926,40.409z"/>
			<path fill="#FF9C31" d="M86.032,50.801c0.674,0.454,1.587,0.275,2.04-0.398l4.142-6.152c-0.745-0.743-1.353-1.618-1.808-2.58
				l-4.773,7.09C85.18,49.435,85.359,50.348,86.032,50.801z"/>
			<path fill="#FF9C31" d="M116.952,40.185c0.774,0.238,1.598-0.198,1.836-0.975c0.237-0.776-0.199-1.598-0.976-1.836l-9.882-3.027
				v3.075L116.952,40.185z"/>
			<path fill="#FF9C31" d="M104.764,55.58c0.244,0.548,0.781,0.874,1.344,0.874c0.199,0,0.402-0.041,0.596-0.127
				c0.742-0.33,1.076-1.198,0.746-1.94l-3.915-8.808c-0.83,0.509-1.744,0.892-2.72,1.118L104.764,55.58z"/>
			<path fill="#FF9C31" d="M118.853,16.809c0-0.812-0.658-1.47-1.47-1.47h-9.452v2.94h9.452
				C118.194,18.279,118.853,17.621,118.853,16.809z"/>
			<path fill="#FF9C31" d="M113.432,47.745c-0.533,0.612-0.469,1.541,0.143,2.074l7.494,6.527c0.63-0.753,1.225-1.537,1.776-2.352
				l-7.338-6.392C114.894,47.069,113.965,47.133,113.432,47.745z"/>
			<path fill="#FF9C31" d="M116.134,29.083c0,0.812,0.658,1.47,1.47,1.47h10.212v-2.939h-10.212
				C116.792,27.613,116.134,28.271,116.134,29.083z"/>
			<path fill="#FF9C31" d="M161.338,67.749c-0.812,0-1.47,0.658-1.47,1.47v9.649h2.939v-9.649
				C162.808,68.407,162.149,67.749,161.338,67.749z"/>
			<path fill="#FF9C31" d="M136.992,86.529c0.721,0,1.351-0.532,1.454-1.266c0.113-0.804-0.448-1.548-1.251-1.66l-12.402-1.739
				c-0.207,0.95-0.366,1.918-0.478,2.9l12.472,1.75C136.855,86.524,136.924,86.529,136.992,86.529z"/>
			<path fill="#FF9C31" d="M199.144,70.469c0.812,0,1.47-0.658,1.47-1.47V58.984h-2.94v10.015
				C197.674,69.811,198.332,70.469,199.144,70.469z"/>
			<path fill="#FF9C31" d="M173.613,70.469c0.812,0,1.47-0.658,1.47-1.47V58.984h-2.939v10.015
				C172.143,69.811,172.801,70.469,173.613,70.469z"/>
			<path fill="#FF9C31" d="M210.683,67.749c-0.812,0-1.47,0.658-1.47,1.47v9.649h2.939v-9.649
				C212.152,68.407,211.494,67.749,210.683,67.749z"/>
			<path fill="#FF9C31" d="M143.167,102.781c-0.612-0.532-1.541-0.469-2.074,0.144l-6.526,7.493c0.753,0.63,1.536,1.224,2.351,1.776
				l6.392-7.339C143.844,104.243,143.78,103.314,143.167,102.781z"/>
			<path fill="#FF9C31" d="M187.361,105.482c-0.812,0-1.47,0.659-1.47,1.471v10.213h2.94v-10.213
				C188.831,106.142,188.172,105.482,187.361,105.482z"/>
			<path fill="#FF9C31" d="M161.829,105.482c-0.812,0-1.47,0.659-1.47,1.471v10.213h2.939v-10.213
				C163.298,106.142,162.64,105.482,161.829,105.482z"/>
			<path fill="#FF9C31" d="M150.171,71.313c0.11,0,0.221-0.012,0.333-0.039c0.791-0.182,1.284-0.972,1.101-1.763l-2.373-10.256
				c-0.98,0.133-1.945,0.314-2.892,0.542l2.4,10.376C148.897,70.854,149.502,71.313,150.171,71.313z"/>
			<path fill="#FF9C31" d="M211.173,105.482c-0.812,0-1.47,0.659-1.47,1.471v10.213h2.94v-10.213
				C212.643,106.142,211.985,105.482,211.173,105.482z"/>
			<path fill="#FF9C31" d="M186.869,67.749c-0.812,0-1.47,0.658-1.47,1.47v9.649h2.94v-9.649
				C188.339,68.407,187.681,67.749,186.869,67.749z"/>
			<path fill="#FF9C31" d="M140.111,75.38c-0.454,0.674-0.275,1.587,0.398,2.041l6.152,4.143c0.743-0.744,1.618-1.353,2.579-1.808
				l-7.09-4.773C141.477,74.531,140.563,74.708,140.111,75.38z"/>
			<path fill="#FF9C31" d="M199.636,108.203c0.812,0,1.47-0.658,1.47-1.471V97.28h-2.94v9.452
				C198.166,107.545,198.824,108.203,199.636,108.203z"/>
			<path fill="#FF9C31" d="M174.104,108.203c0.812,0,1.47-0.658,1.47-1.471V97.28h-2.939v9.452
				C172.634,107.545,173.292,108.203,174.104,108.203z"/>
			<path fill="#FF9C31" d="M135.333,94.113c-0.742,0.329-1.076,1.198-0.747,1.939c0.329,0.741,1.198,1.08,1.94,0.746l8.808-3.914
				c-0.509-0.829-0.891-1.743-1.118-2.72L135.333,94.113z"/>
			<path fill="#FF9C31" d="M150.726,106.303c-0.238,0.775,0.199,1.598,0.975,1.836c0.143,0.043,0.288,0.064,0.431,0.064
				c0.629,0,1.211-0.407,1.405-1.04l3.027-9.883h-3.075L150.726,106.303z"/>
		</g>
	</g>
</g>
</svg>
