<?xml version="1.0" encoding="UTF-8"?>
<svg width="240px" height="160px" viewBox="0 0 240 160" version="1.1" xmlns="http://www.w3.org/2000/svg" xmlns:xlink="http://www.w3.org/1999/xlink">
    <!-- Generator: Sketch 49.3 (51167) - http://www.bohemiancoding.com/sketch -->
    <title>course-2</title>
    <desc>Created with Sketch.</desc>
    <defs>
        <path d="M0.0973325075,32.6634708 C0.850502031,20.7186543 5.97475229,9.83083067 15.4700833,0 C24.9654143,9.83083067 30.0896645,20.7186543 30.8428341,32.6634708 L30.9401666,32.6634708 L30.9401666,97.2127106 L15.4700833,89.0468429 L0,97.2127106 L0,32.6634708 L0.0973325075,32.6634708 Z" id="path-1"></path>
        <filter x="-4.8%" y="-1.5%" width="109.7%" height="103.1%" filterUnits="objectBoundingBox" id="filter-2">
            <feOffset dx="2" dy="3" in="SourceAlpha" result="shadowOffsetInner1"></feOffset>
            <feComposite in="shadowOffsetInner1" in2="SourceAlpha" operator="arithmetic" k2="-1" k3="1" result="shadowInnerInner1"></feComposite>
            <feColorMatrix values="0 0 0 0 0   0 0 0 0 0   0 0 0 0 0  0 0 0 0.15477808 0" type="matrix" in="shadowInnerInner1"></feColorMatrix>
        </filter>
        <ellipse id="path-3" cx="3.09401666" cy="3.11080674" rx="3.09401666" ry="3.11080674"></ellipse>
        <filter x="-16.2%" y="-16.1%" width="132.3%" height="132.1%" filterUnits="objectBoundingBox" id="filter-4">
            <feOffset dx="2" dy="2" in="SourceAlpha" result="shadowOffsetInner1"></feOffset>
            <feComposite in="shadowOffsetInner1" in2="SourceAlpha" operator="arithmetic" k2="-1" k3="1" result="shadowInnerInner1"></feComposite>
            <feColorMatrix values="0 0 0 0 0   0 0 0 0 0   0 0 0 0 0  0 0 0 0.3 0" type="matrix" in="shadowInnerInner1"></feColorMatrix>
        </filter>
        <ellipse id="path-5" cx="3.09401666" cy="13.9986303" rx="3.09401666" ry="3.11080674"></ellipse>
        <filter x="-16.2%" y="-16.1%" width="132.3%" height="132.1%" filterUnits="objectBoundingBox" id="filter-6">
            <feOffset dx="2" dy="2" in="SourceAlpha" result="shadowOffsetInner1"></feOffset>
            <feComposite in="shadowOffsetInner1" in2="SourceAlpha" operator="arithmetic" k2="-1" k3="1" result="shadowInnerInner1"></feComposite>
            <feColorMatrix values="0 0 0 0 0   0 0 0 0 0   0 0 0 0 0  0 0 0 0.3 0" type="matrix" in="shadowInnerInner1"></feColorMatrix>
        </filter>
        <ellipse id="path-7" cx="3.09401666" cy="24.8864539" rx="3.09401666" ry="3.11080674"></ellipse>
        <filter x="-16.2%" y="-16.1%" width="132.3%" height="132.1%" filterUnits="objectBoundingBox" id="filter-8">
            <feOffset dx="2" dy="2" in="SourceAlpha" result="shadowOffsetInner1"></feOffset>
            <feComposite in="shadowOffsetInner1" in2="SourceAlpha" operator="arithmetic" k2="-1" k3="1" result="shadowInnerInner1"></feComposite>
            <feColorMatrix values="0 0 0 0 0   0 0 0 0 0   0 0 0 0 0  0 0 0 0.3 0" type="matrix" in="shadowInnerInner1"></feColorMatrix>
        </filter>
        <ellipse id="path-9" cx="7.34170404" cy="7.33860676" rx="7.34170404" ry="7.33860676"></ellipse>
    </defs>
    <g id="illu" stroke="none" stroke-width="1" fill="none" fill-rule="evenodd">
        <g id="courses-3-illu-copy" transform="translate(-420.000000, -175.000000)">
            <g id="course-2" transform="translate(420.000000, 175.000000)">
                <g id="Group-50">
                    <rect id="Rectangle" fill="#652DAD" x="12.8571429" y="0" width="214.285714" height="140" rx="8"></rect>
                    <rect id="Rectangle" fill="#833AE0" x="23.5714286" y="10" width="192.857143" height="115" rx="3"></rect>
                    <g id="Group-43" transform="translate(0.000000, 129.000000)">
                        <path d="M19.7561667,2 L220.243833,2 C224.622707,2 228.782949,3.91344093 231.632682,7.2381294 L237.857143,14.5 C240.578733,17.675188 240.211019,22.4554709 237.03583,25.1770607 C235.663435,26.3533998 233.915508,27 232.107956,27 L7.89204367,27 C3.71007405,27 0.319917843,23.6098438 0.319917843,19.4278742 C0.319917843,17.6203224 0.966518031,15.8723956 2.14285714,14.5 L8.36731766,7.2381294 C11.2170506,3.91344093 15.3772934,2 19.7561667,2 Z" id="Rectangle" fill="#652DAD"></path>
                        <path d="M19.7561667,6 L220.243833,6 C224.622707,6 228.782949,7.91344093 231.632682,11.2381294 L237.857143,18.5 C240.578733,21.675188 240.211019,26.4554709 237.03583,29.1770607 C235.663435,30.3533998 233.915508,31 232.107956,31 L7.89204367,31 C3.71007405,31 0.319917843,27.6098438 0.319917843,23.4278742 C0.319917843,21.6203224 0.966518031,19.8723956 2.14285714,18.5 L8.36731766,11.2381294 C11.2170506,7.91344093 15.3772934,6 19.7561667,6 Z" id="Rectangle" fill="#652DAD"></path>
                        <rect id="Rectangle-8" fill="#652DAD" x="0.347025478" y="19" width="4.28571429" height="6"></rect>
                        <rect id="Rectangle-8" fill="#652DAD" x="235.376455" y="19" width="4.28571429" height="6"></rect>
                        <path d="M15.048151,11 L225.328433,11 C226.463517,11 227.525074,11.561616 228.163707,12.5 L228.163707,12.5 C228.461985,12.9382789 228.348492,13.5353762 227.910213,13.8336542 C227.750956,13.9420391 227.562772,14 227.370133,14 L11.8540836,14 C11.3749203,14 10.9864817,13.6115614 10.9864817,13.1323981 C10.9864817,12.8928645 11.0855122,12.6639886 11.2601091,12.5 L11.2601091,12.5 C12.2860448,11.5363988 13.6406457,11 15.048151,11 Z" id="Rectangle" fill="#833AE0"></path>
                        <path d="M10.4631642,17 L230.24521,17 C230.72347,17 231.111175,17.3877057 231.111175,17.8659649 C231.111175,18.1064877 231.01114,18.3361751 230.835036,18.5 L230.835036,18.5 C229.798704,19.4640727 228.435775,20 227.020352,20 L12.484527,20 C11.35375,20 10.2969808,19.4377699 9.66512312,18.5 L9.66512312,18.5 C9.368154,18.0592541 9.48470811,17.4612179 9.92545401,17.1642488 C10.0843433,17.0571912 10.2715731,17 10.4631642,17 Z" id="Rectangle" fill="#833AE0"></path>
                        <path d="M21.3277803,5 L221.12892,5 C222.242889,5 223.280902,5.56472738 223.886039,6.5 L223.886039,6.5 C224.177651,6.95070262 224.048683,7.55246756 223.59798,7.8440796 C223.440682,7.94585419 223.257322,8 223.06997,8 L18.2911713,8 C17.8071022,8 17.4146866,7.60758446 17.4146866,7.12351535 C17.4146866,6.88921472 17.5084957,6.6646678 17.6751729,6.5 L17.6751729,6.5 C18.6479589,5.53894179 19.9603208,5 21.3277803,5 Z" id="Rectangle" fill="#833AE0"></path>
                        <path d="M120.535714,0.5 L120.535714,23.5" id="Line-2" stroke="#652DAD" stroke-width="4" stroke-linecap="square"></path>
                        <path d="M152.678571,0.5 L159.107143,23.5" id="Line-2" stroke="#652DAD" stroke-width="4" stroke-linecap="square"></path>
                        <path d="M186.964286,0.5 L199.821429,23.5" id="Line-2" stroke="#652DAD" stroke-width="4" stroke-linecap="square"></path>
                        <path d="M88.3928571,0.5 L83.0357143,23.5" id="Line-2" stroke="#652DAD" stroke-width="4" stroke-linecap="square"></path>
                        <path d="M56.25,0.5 L40.1785714,23.5" id="Line-2" stroke="#652DAD" stroke-width="4" stroke-linecap="square"></path>
                    </g>
                    <rect id="Rectangle-33" fill="#833AE0" x="105" y="128" width="31.0714286" height="2"></rect>
                </g>
                <g id="Group-7" transform="translate(37.000000, 37.000000)">
                    <g id="Group-2" transform="translate(67.479284, 39.978969) scale(-1, 1) rotate(-68.000000) translate(-67.479284, -39.978969) translate(51.479284, -26.021031)">
                        <polygon id="Rectangle-48-Copy" fill="#652DAD" points="4.45714286 85.1812081 18.3802178 85.1812081 4.45714286 98.4021367"></polygon>
                        <g id="Group-55-Copy">
                            <polygon id="Rectangle-48" fill="#D8D8D8" transform="translate(19.337604, 92.157650) scale(-1, 1) translate(-19.337604, -92.157650) " points="12.3760666 85.5471853 26.2991416 85.5471853 12.3760666 98.768114"></polygon>
                            <g id="Combined-Shape">
                                <use fill="#FFFFFF" fill-rule="evenodd" xlink:href="#path-1"></use>
                                <use fill="black" fill-opacity="1" filter="url(#filter-2)" xlink:href="#path-1"></use>
                            </g>
                        </g>
                        <g id="Group-18" transform="translate(5.490006, 102.065415)">
                            <path d="M6.30056595,17.6513879 C6.09078059,17.5775181 5.88455285,17.4960368 5.6822103,17.4072734 C5.03617664,21.8844777 3.40590284,23.2356392 2.66851314,23.7303071 C3.46049371,17.0946542 0.292571429,16.2983758 0.292571429,9.13187059 C0.292596838,4.14775793 4.3111806,0.10738255 9.26835124,0.10738255 C12.8551454,0.10738255 15.950557,2.22265774 17.3878722,5.28016271 C17.4098768,5.32493271 17.4313061,5.3701795 17.4521505,5.41590493 C20.3560792,11.7861318 19.5640987,18.952637 13.4381452,24.5265855 C14.9618198,21.1246011 14.5391994,18.9148989 13.2636395,17.2152664 C13.0036885,17.3453986 12.7365742,17.463228 12.4630507,17.5679966 C13.5537151,25.5938806 7.18948228,29.7577187 3.46049371,28.5079773 C6.46512513,26.8813192 7.22169017,21.0399957 6.30056595,17.6513879 Z" id="Combined-Shape-Copy" fill="#FFCD31" transform="translate(9.683867, 14.417094) scale(-1, 1) translate(-9.683867, -14.417094) "></path>
                            <path d="M4.46274393,6.6904088 C4.4627619,3.87333145 6.73413395,1.58964465 9.53601078,1.58964465 C11.5633292,1.58964465 13.3129097,2.78523497 14.1253052,4.51338996 C14.1377426,4.53869474 14.1498548,4.56426901 14.1616364,4.59011382 C15.8029875,8.19067683 13.0368175,13.4587329 6.94353823,17.7484461 C8.90281307,13.6734795 4.46274393,10.7410756 4.46274393,6.69044224 Z" id="Combined-Shape-Copy-2" fill="#FF62C5" transform="translate(9.545016, 9.669045) scale(-1, 1) rotate(-10.000000) translate(-9.545016, -9.669045) "></path>
                        </g>
                        <path d="M0,43.4405481 L31.2,43.465709" id="Line-17" stroke="#833AE0" stroke-width="3.78799988" stroke-linecap="square"></path>
                        <g id="Group-114" transform="translate(12.206176, 53.048404)">
                            <g id="Oval-15-Copy">
                                <use fill="#833AE0" fill-rule="evenodd" xlink:href="#path-3"></use>
                                <use fill="black" fill-opacity="1" filter="url(#filter-4)" xlink:href="#path-3"></use>
                            </g>
                            <g id="Oval-15-Copy">
                                <use fill="#833AE0" fill-rule="evenodd" xlink:href="#path-5"></use>
                                <use fill="black" fill-opacity="1" filter="url(#filter-6)" xlink:href="#path-5"></use>
                            </g>
                            <g id="Oval-15-Copy">
                                <use fill="#833AE0" fill-rule="evenodd" xlink:href="#path-7"></use>
                                <use fill="black" fill-opacity="1" filter="url(#filter-8)" xlink:href="#path-7"></use>
                            </g>
                        </g>
                    </g>
                    <g id="Group" transform="translate(102.657013, 25.874098) scale(-1, 1) rotate(22.000000) translate(-102.657013, -25.874098) translate(92.157013, 15.374098)">
                        <ellipse id="Oval-15-Copy" fill="#833AE0" cx="10.004542" cy="10.5254354" rx="9.31317331" ry="9.30924432"></ellipse>
                        <g id="Group-106" transform="translate(10.394324, 10.536748) rotate(-22.000000) translate(-10.394324, -10.536748) translate(2.894324, 3.036748)">
                            <mask id="mask-10" fill="white">
                                <use xlink:href="#path-9"></use>
                            </mask>
                            <use id="Mask" fill="#833AE0" xlink:href="#path-9"></use>
                            <g mask="url(#mask-10)">
                                <g transform="translate(1.542601, 6.167800)">
                                    <rect id="Rectangle-46" fill="#FF9C31" opacity="0.900000036" x="2.31390135" y="0" width="6.17040359" height="3.08390023"></rect>
                                    <rect id="Rectangle-47" fill="#FF9C31" x="0" y="3.85487528" width="1.5426009" height="6.16780045"></rect>
                                    <rect id="Rectangle-47" fill="#FF9C31" x="9.25560538" y="3.85487528" width="1.5426009" height="6.16780045"></rect>
                                    <ellipse id="Oval-21" fill="#833AE0" cx="3.85650224" cy="1.54195011" rx="1" ry="1"></ellipse>
                                    <ellipse id="Oval-21" fill="#833AE0" cx="6.94170404" cy="1.54195011" rx="1" ry="1"></ellipse>
                                    <rect id="Rectangle-46" fill="#FF9C31" x="2.31390135" y="3.85487528" width="6.17040359" height="6.93877551"></rect>
                                </g>
                            </g>
                        </g>
                    </g>
                </g>
                <circle id="Oval-17-Copy" fill="#FFFFFF" cx="71.2" cy="36.4" r="2"></circle>
                <circle id="Oval-17-Copy" fill="#FFFFFF" cx="92" cy="20.4" r="1.2"></circle>
                <circle id="Oval-17-Copy" fill="#FFFFFF" cx="54.8" cy="32.8" r="1"></circle>
                <circle id="Oval-17-Copy" fill="#FFFFFF" cx="45.2" cy="45.6" r="1"></circle>
                <circle id="Oval-17-Copy" fill="#FFFFFF" transform="translate(170.182466, 94.595974) rotate(-23.000000) translate(-170.182466, -94.595974) " cx="170.182466" cy="94.5959742" r="2"></circle>
                <circle id="Oval-17-Copy-3" fill="#FFFFFF" transform="translate(194.605587, 79.448989) rotate(-23.000000) translate(-194.605587, -79.448989) " cx="194.605587" cy="79.4489888" r="1"></circle>
                <circle id="Oval-17-Copy" fill="#D8D8D8" transform="translate(184.746516, 105.361124) rotate(-23.000000) translate(-184.746516, -105.361124) " cx="184.746516" cy="105.361124" r="1"></circle>
                <circle id="Oval-17-Copy" fill="#FFFFFF" transform="translate(164.238442, 112.328108) rotate(-23.000000) translate(-164.238442, -112.328108) " cx="164.238442" cy="112.328108" r="1"></circle>
                <circle id="Oval-17" fill="#FF62C5" cx="181.2" cy="30.8" r="9.6"></circle>
                <circle id="Oval-17" fill="#E657B1" cx="175.8" cy="27.8" r="1.8"></circle>
                <circle id="Oval-17" fill="#E657B1" cx="183" cy="30.2" r="3"></circle>
                <circle id="Oval-17" fill="#E657B1" cx="178.2" cy="35" r="1.8"></circle>
            </g>
        </g>
    </g>
</svg>