<?xml version="1.0" encoding="utf-8"?>
<!-- Generator: Adobe Illustrator 16.0.0, SVG Export Plug-In . SVG Version: 6.00 Build 0)  -->
<!DOCTYPE svg PUBLIC "-//W3C//DTD SVG 1.1//EN" "http://www.w3.org/Graphics/SVG/1.1/DTD/svg11.dtd">
<svg version="1.1" id="Layer_1" xmlns="http://www.w3.org/2000/svg" xmlns:xlink="http://www.w3.org/1999/xlink" x="0px" y="0px"
	 width="239.344px" height="159.99px" viewBox="0 0 239.344 159.99" enable-background="new 0 0 239.344 159.99"
	 xml:space="preserve">
<g>
	<g>
		<path fill="#652DAD" d="M87.488,64.872c-32.767,0-51.038,9.684-61.189,19.367h122.377
			C148.676,79.197,120.253,64.872,87.488,64.872z"/>
	</g>
	<g>
		<path fill="#652DAD" d="M182.462,73.569c-16.069,0-30.008,7.895-30.008,10.672h60.017
			C212.471,81.462,198.531,73.569,182.462,73.569z"/>
	</g>
	<g>
		<path fill="#FFCD31" d="M218.35,99.675v-1.5l-13.176-7.17h13.176v-0.979l-15.002-0.015l-9.104-4.955h24.105v-0.975H21.013v0.975
			h24.622l-9.176,4.974H21.013v0.976h13.691l-13.691,7.431v1.387l0.305-0.166H39.76l-0.402,0.274l-18.345,12.506v1.239l2.739-1.867
			h22.311l-15.938,13.949h-7.81c0.5,0.354,1.108,0.567,1.768,0.567h191.196c0.66,0,1.269-0.214,1.769-0.567h-7.81l-0.078-0.069
			l-15.861-13.88h22.311l0.07,0.048l2.67,1.821v-1.24l-18.748-12.781L218.35,99.675z M216.77,98.682h-18.599l-0.038-0.026
			l-11.222-7.649l15.784,0.019L216.77,98.682z M157.74,98.682h-17.948l-0.036-0.099l-2.814-7.578h14.985l0.046,0.06L157.74,98.682z
			 M153.213,91.005h14.754l8.771,7.677h-17.713L153.213,91.005z M158.664,99.904l0.083,0.109l8.224,10.857h-22.648l-0.067-0.18
			l-4.008-10.788L158.664,99.904L158.664,99.904z M159.95,99.904h18.185l0.078,0.069l12.458,10.897h-22.416l-0.083-0.109
			L159.95,99.904z M169.521,91.005h15.571l0.038,0.025l11.223,7.65h-18.058L169.521,91.005z M191.998,85.057l-0.061,0.112
			l8.933,4.86h-15.39l-0.039-0.025l-7.254-4.947H191.998z M176.368,85.057l0.038,0.026l7.256,4.946h-15.256l-5.684-4.974
			L176.368,85.057L176.368,85.057z M161.167,85.057l5.685,4.974h-14.377l-3.767-4.974H161.167z M147.423,85.057l3.765,4.974h-14.609
			l-0.036-0.099l-1.812-4.875H147.423z M120.23,85.057h13.408l1.848,4.974H120.23V85.057z M120.23,91.005h15.617l0.036,0.099
			l2.816,7.578h-18.47V91.005z M120.23,99.904h18.922l0.066,0.18l4.008,10.788H120.23V99.904z M104.629,85.057l-1.847,4.974H88.171
			l3.767-4.974H104.629z M61.064,98.682H43.007l11.26-7.677H69.84L61.064,98.682z M71.394,91.005h14.753l-5.812,7.677H62.621
			L71.394,91.005z M61.227,99.904h18.185l-0.182,0.241l-8.123,10.727H48.69L61.227,99.904z M72.575,110.629l8.123-10.727h18.417
			l-4.074,10.968H72.393L72.575,110.629z M81.621,98.682l5.813-7.677h14.986l-2.852,7.677H81.621z M90.652,85.057l-3.766,4.974
			H72.508l5.686-4.974H90.652z M76.638,85.057l-5.685,4.974H55.698l7.294-4.974H76.638z M47.941,85.169l-0.049-0.091l0.241-0.021
			h13.042l-7.294,4.974H39.008L47.941,85.169z M23.11,98.682l14.144-7.677H52.45l-11.26,7.677H23.11z M25.129,110.871l16.087-10.968
			h18.455l-12.537,10.968H25.129z M31.68,125.758l0.3-0.264l15.638-13.687h22.778l-10.56,13.949L31.68,125.758L31.68,125.758z
			 M61.122,125.758l10.56-13.949h23.01l-0.137,0.371l-5.042,13.578H61.122z M119.131,125.758H90.606l0.137-0.371l5.042-13.578
			h23.346V125.758z M119.131,110.871H96.133l4.074-10.968h18.923L119.131,110.871L119.131,110.871z M119.131,98.682h-18.47
			l2.851-7.677h15.619V98.682z M119.131,90.031h-15.256l1.847-4.974h13.409V90.031z M120.23,125.758v-13.949h23.345l0.067,0.179
			l5.112,13.771L120.23,125.758L120.23,125.758z M149.85,125.758l-0.067-0.179l-5.114-13.771h23.012l0.082,0.109l10.477,13.84
			L149.85,125.758L149.85,125.758z M207.682,125.758h-28.156l-0.084-0.109l-10.477-13.84h22.778l0.077,0.068L207.682,125.758z
			 M214.232,110.871h-22.008l-0.078-0.069l-12.457-10.897h18.453l0.07,0.049L214.232,110.871z"/>
	</g>
	<g>
		<g>
			<g>
				<g>
					<path fill="#FFCD31" d="M173.494,31.531c4.414-4.412,11.593-4.412,16.003,0.002c4.41,4.409,4.41,11.591-0.001,16.004
						s-11.59,4.415-16.002,0.003C169.08,43.126,169.08,35.945,173.494,31.531z"/>
				</g>
			</g>
		</g>
		<g>
			<path fill="#FFCD31" d="M179.838,61.369v1.27c-0.001,0.783,0.635,1.418,1.417,1.416c0.781-0.002,1.418-0.633,1.417-1.414v-6.472
				l0,0l-0.001-1.271c0.002-0.778-0.633-1.414-1.417-1.416c-0.783-0.002-1.421,0.636-1.419,1.418v6.473L179.838,61.369z"/>
			<g>
				<path fill="#FFCD31" d="M183.031,17.698v-1.27c0-0.781-0.635-1.416-1.418-1.416s-1.418,0.635-1.418,1.416v6.472l0,0v1.271
					c0,0.782,0.636,1.417,1.419,1.417c0.782,0,1.418-0.635,1.418-1.417L183.031,17.698L183.031,17.698z"/>
				<path fill="#FFCD31" d="M171.906,19.855l-0.635-1.099c-0.392-0.676-1.258-0.908-1.937-0.517
					c-0.678,0.392-0.91,1.258-0.521,1.934l3.236,5.605l0,0l0.635,1.101c0.392,0.676,1.258,0.908,1.938,0.518
					c0.679-0.393,0.911-1.26,0.521-1.936l-3.236-5.606H171.906z"/>
				<path fill="#FFCD31" d="M163.352,27.287l-1.1-0.636c-0.678-0.391-1.545-0.157-1.936,0.521c-0.392,0.678-0.159,1.545,0.518,1.936
					l5.605,3.235l0,0l1.1,0.634c0.676,0.392,1.543,0.158,1.936-0.521c0.394-0.678,0.16-1.543-0.518-1.935l-5.605-3.236V27.287z"/>
				<path fill="#FFCD31" d="M159.656,37.998h-1.27c-0.781,0-1.416,0.635-1.416,1.418c0.002,0.78,0.635,1.416,1.416,1.416h6.473l0,0
					h1.271c0.78,0,1.415-0.636,1.416-1.418c0.001-0.783-0.634-1.42-1.417-1.418h-6.473V37.998L159.656,37.998z"/>
				<path fill="#FFCD31" d="M161.814,49.122l-1.101,0.635c-0.678,0.391-0.909,1.258-0.519,1.936c0.394,0.677,1.259,0.91,1.936,0.521
					l5.605-3.236l0,0l1.1-0.637c0.678-0.389,0.909-1.255,0.518-1.936c-0.391-0.68-1.258-0.911-1.937-0.52l-5.604,3.235
					L161.814,49.122z"/>
				<path fill="#FFCD31" d="M169.245,57.676l-0.636,1.1c-0.392,0.678-0.158,1.544,0.521,1.936c0.679,0.389,1.544,0.158,1.935-0.519
					l3.236-5.604l0,0l0.635-1.103c0.393-0.674,0.16-1.541-0.52-1.936c-0.678-0.393-1.547-0.16-1.938,0.52l-3.236,5.605H169.245z"/>
				<path fill="#FFCD31" d="M191.082,59.211l0.635,1.099c0.391,0.68,1.258,0.912,1.936,0.521c0.677-0.394,0.912-1.259,0.521-1.934
					l-3.235-5.604l0,0L190.3,52.19c-0.388-0.676-1.254-0.908-1.935-0.518c-0.68,0.391-0.913,1.26-0.521,1.938l3.236,5.605
					L191.082,59.211z"/>
				<path fill="#FFCD31" d="M199.637,51.781l1.1,0.636c0.679,0.393,1.546,0.16,1.937-0.519c0.39-0.68,0.16-1.545-0.517-1.936
					l-5.605-3.235l0,0l-1.103-0.635c-0.675-0.393-1.539-0.16-1.935,0.518c-0.393,0.679-0.16,1.549,0.519,1.938l5.604,3.236V51.781
					L199.637,51.781z"/>
				<path fill="#FFCD31" d="M203.33,41.07h1.27c0.783,0.002,1.418-0.633,1.418-1.416c-0.002-0.78-0.634-1.418-1.414-1.418h-6.474
					l0,0l-1.272,0.002c-0.778-0.002-1.412,0.632-1.414,1.416c-0.002,0.783,0.634,1.42,1.416,1.42h6.474L203.33,41.07z"/>
				<path fill="#FFCD31" d="M201.172,29.948l1.1-0.635c0.681-0.391,0.912-1.258,0.521-1.936c-0.395-0.676-1.258-0.912-1.936-0.521
					l-5.604,3.236l0,0l-1.103,0.639c-0.676,0.387-0.905,1.251-0.517,1.933c0.392,0.678,1.259,0.914,1.937,0.521l5.605-3.234
					L201.172,29.948z"/>
				<path fill="#FFCD31" d="M193.742,21.394l0.635-1.1c0.393-0.678,0.161-1.544-0.518-1.936c-0.678-0.389-1.545-0.162-1.937,0.517
					l-3.235,5.604l0,0l-0.636,1.104c-0.391,0.674-0.157,1.537,0.521,1.932c0.678,0.394,1.547,0.162,1.938-0.516l3.236-5.606H193.742
					z"/>
			</g>
		</g>
	</g>
	<g>
		<g>
			<polygon fill="#652DAD" points="46.111,58.537 51.306,51.843 56.5,58.537 			"/>
		</g>
		<g>
			<polygon fill="#652DAD" points="47.031,53.301 51.306,47.792 55.581,53.301 			"/>
		</g>
		<g>
			<polygon fill="#652DAD" points="44.38,65.603 51.307,56.681 58.232,65.603 			"/>
		</g>
	</g>
	<g>
		<g>
			<polygon fill="#652DAD" points="35.422,70.975 40.617,64.283 45.812,70.975 			"/>
		</g>
		<g>
			<polygon fill="#652DAD" points="36.342,65.74 40.617,60.23 44.892,65.74 			"/>
		</g>
	</g>
	<g>
		<polygon fill="#652DAD" points="4.313,147.989 0.027,147.989 0.027,153.988 4.313,153.988 		"/>
		<g>
			<path fill="none" d="M26.252,124.99h186.857c1.656,0,3-1.344,3-3V13c0-1.656-1.344-3-3-3H26.252c-1.656,0-3,1.344-3,3V121.99
				C23.252,123.647,24.596,124.99,26.252,124.99z"/>
			<path fill="#652DAD" d="M239.34,147.989c-0.089-1.602-0.679-3.188-1.803-4.5l-6.225-7.261c-1.275-1.487-2.822-2.675-4.525-3.552
				c0.02-0.228,0.035-0.455,0.035-0.688V8c0-4.415-3.584-8-8-8H20.537c-4.416,0-8,3.585-8,8V131.99c0,0.232,0.015,0.461,0.035,0.688
				c-1.702,0.877-3.248,2.063-4.523,3.551l-6.227,7.261C0.646,144.862,0,146.61,0,148.417c0,0.688,0.1,1.354,0.273,1.988
				C0.094,151.056,0,151.732,0,152.417c0,4.182,3.391,7.569,7.572,7.569h224.217c1.807,0,3.555-0.646,4.926-1.821
				c1.314-1.126,2.141-2.606,2.473-4.179h0.156v-1.191v-0.752v-3.248v-0.751v-0.057L239.34,147.989L239.34,147.989z M122.215,127.99
				h13.537v2h-13.537h-4h-13.533v-2h13.533H122.215z M230.791,146.856c0,0.24-0.1,0.47-0.275,0.633
				c-1.037,0.966-2.399,1.5-3.813,1.5h-26.864l-1.677-3h31.767C230.404,145.989,230.791,146.377,230.791,146.856z M46.841,145.989
				h35.334l-0.699,3H44.745L46.841,145.989z M51.034,139.989h32.539l-0.699,3H48.938L51.034,139.989z M54.528,134.99l0.699-1h29.744
				l-0.233,1l-0.466,2H53.13L54.528,134.99z M187.428,134.99l1.118,2h-32.014l-0.56-2l-0.279-1h31.176L187.428,134.99z
				 M191.9,142.989h-33.691l-0.839-3h32.853L191.9,142.989z M87.68,139.989h30.535v3H86.981L87.68,139.989z M122.215,139.989h31.002
				l0.838,3h-31.841L122.215,139.989L122.215,139.989z M151.82,134.99l0.559,2h-30.164v-2v-1h29.326L151.82,134.99z M118.215,134.99
				v2H88.378l0.466-2l0.233-1h29.138V134.99z M86.282,145.989h31.933v3H85.583L86.282,145.989z M122.215,145.989h32.68l0.838,3
				h-33.519L122.215,145.989L122.215,145.989z M159.887,148.989l-0.839-3h34.53l1.677,3H159.887z M227.844,141.489
				c0.299,0.439,0.186,1.035-0.254,1.334c-0.158,0.109-0.348,0.166-0.539,0.166h-30.568l-1.676-3h24.017h6.186
				C226.145,139.989,227.205,140.551,227.844,141.489z M223.566,135.49c0.291,0.451,0.162,1.054-0.287,1.345
				c-0.158,0.104-0.342,0.155-0.529,0.155h-29.621l-1.118-2l-0.559-1h29.356c1.096,0,2.111,0.553,2.721,1.456
				C223.541,135.462,223.557,135.473,223.566,135.49z M50.347,133.99l-0.699,1l-1.398,2H17.973c-0.484,0-0.877-0.391-0.877-0.875
				c0-0.235,0.094-0.459,0.26-0.625c0.158-0.154,0.337-0.28,0.511-0.413c0.901-0.688,1.996-1.087,3.142-1.087H50.347z
				 M20.537,139.989h25.617l-2.097,3H11.535c-0.48,0-0.869-0.387-0.869-0.866c0-0.238,0.1-0.47,0.275-0.634
				c1.025-0.963,2.379-1.5,3.787-1.5H20.537z M10.145,145.989h31.817l-2.097,3H12.164c-1.131,0-2.186-0.561-2.818-1.5
				c-0.297-0.438-0.182-1.038,0.26-1.336C9.766,146.047,9.951,145.989,10.145,145.989z M23.252,13c0-1.656,1.344-3,3-3h186.857
				c1.656,0,3,1.344,3,3V121.99c0,1.656-1.344,3-3,3H26.252c-1.656,0-3-1.344-3-3V13z"/>
		</g>
	</g>
	<path fill="#FFFFFF" d="M78.831,31.285c-1.104,0.91-2.795,1.493-4.692,1.493c-3.328,0-6.031-1.797-6.031-4.016
		c0-2.09,2.394-3.803,5.452-3.999c0.641-3.038,4.557-5.375,9.288-5.375c5.182,0,9.38,2.798,9.38,6.249
		c0,3.454-4.199,6.251-9.38,6.251C81.411,31.888,80.05,31.67,78.831,31.285L78.831,31.285z"/>
	<path fill="#FFFFFF" d="M129.568,29.383c0.574-0.236,1.246-0.371,1.963-0.371c2.123,0,3.846,1.191,3.846,2.664
		c0,1.47-1.723,2.663-3.846,2.663c-0.4,0-0.785-0.043-1.148-0.121c-1.053,1.463-3.236,2.468-5.756,2.468
		c-3.551,0-6.43-1.993-6.43-4.454c0-2.46,2.879-4.452,6.43-4.452C126.613,27.779,128.389,28.402,129.568,29.383L129.568,29.383z"/>
	<path fill="#D8D8D8" d="M112.635,35.487c2.23,0,4.041,1.206,4.041,2.69c0,1.483-1.811,2.691-4.041,2.691
		c-2.229,0-4.04-1.208-4.04-2.691C108.596,36.693,110.406,35.487,112.635,35.487L112.635,35.487z"/>
	<path fill="#FFFFFF" d="M142.963,39.948c1.414,0,2.563,0.765,2.563,1.705c0,0.943-1.147,1.707-2.563,1.707
		s-2.563-0.764-2.563-1.707C140.4,40.712,141.549,39.948,142.963,39.948L142.963,39.948z"/>
	<path fill="#FFFFFF" d="M60.106,17.974c1.414,0,2.563,0.764,2.563,1.705c0,0.943-1.148,1.707-2.563,1.707s-2.563-0.764-2.563-1.707
		C57.543,18.737,58.692,17.974,60.106,17.974L60.106,17.974z"/>
	<path fill="#652DAD" d="M160.543,112.095c0,2.079-23.834,3.763-53.236,3.763c-29.404,0-53.238-1.684-53.238-3.763
		c0-2.081,23.834-3.765,53.238-3.765C136.709,108.331,160.543,110.014,160.543,112.095z"/>
	<rect x="50.601" y="61.914" fill="#652DAD" width="1.283" height="9.601"/>
	<rect x="39.975" y="65.196" fill="#652DAD" width="1.283" height="9.602"/>
	<g>
		<path fill="#FFFFFF" d="M74.302,85.367c7.005,12.528,19.195,22.163,33.341,26.167c15.037,4.071,30.347,2.035,42.446-4.726
			c10.992-6.143,19.39-15.916,23.146-28.454l-5.047-1.444c-6.924,23.648-33.424,37.021-59.114,29.568
			c-12.921-3.834-23.954-12.415-30.234-23.647c-5.656-10.118-7.088-21.751-3.866-32.615l-5.048-1.445
			C66.317,60.985,67.919,73.948,74.302,85.367z"/>
		<path fill="#FF62C5" d="M168.213,76.832L75.005,50.099c-0.012,0.039-0.021,0.077-0.032,0.116l93.214,26.694
			C168.195,76.883,168.206,76.858,168.213,76.832z"/>
		<path fill="#FF62C5" d="M78.839,82.831c6.28,11.232,17.313,19.813,30.234,23.647c25.69,7.451,52.19-5.92,59.114-29.568
			L74.973,50.215C71.751,61.08,73.183,72.712,78.839,82.831z"/>
		<path fill="#652DAD" d="M108.259,81.684c1.348,0.381,2.523-0.557,3-2.243c0.476-1.684-0.032-3.1-1.38-3.48
			c-1.227-0.165-2.402,0.773-3,2.242C106.403,79.887,106.911,81.302,108.259,81.684z"/>
		<path fill="#652DAD" d="M122.458,96.128c1.344,0.395,2.528-0.533,3.021-2.215c0.492-1.679-0.002-3.1-1.347-3.493
			c-1.225-0.177-2.409,0.752-3.021,2.214C120.619,94.314,121.113,95.734,122.458,96.128z"/>
		<path fill="#652DAD" d="M90.625,82.758c0.827,0.234,1.548-0.341,1.841-1.376c0.292-1.033-0.02-1.902-0.847-2.137
			c-0.753-0.103-1.475,0.476-1.841,1.376C89.485,81.656,89.797,82.524,90.625,82.758z"/>
		<path fill="#652DAD" d="M131.443,91.601c0.973,0.275,2.149-0.547,2.479-1.713s-0.172-2.358-1.214-2.758
			c-0.973-0.275-2.219,0.423-2.479,1.713C129.969,90.135,130.471,91.327,131.443,91.601z"/>
		<path fill="#652DAD" d="M146.066,87.925c1.72,0.322,3.422-1.137,3.808-3.202c0.388-2.063-0.663-4.041-2.386-4.365
			c-1.719-0.323-3.418,1.139-3.805,3.201C143.293,85.625,144.346,87.601,146.066,87.925z"/>
		<path fill="#652DAD" d="M96.615,86.223c1.347,0.381,2.955-0.801,3.648-2.604c0.356-1.9-0.395-3.749-1.742-4.132
			c-1.347-0.381-2.956,0.802-3.648,2.604C94.181,83.898,95.268,85.842,96.615,86.223z"/>
		<path fill="#652DAD" d="M83.204,69.333c1.131,0.503,2.524-0.561,2.999-2.242c0.478-1.687-0.031-3.104-1.378-3.482
			c-1.227-0.166-2.402,0.775-3,2.243C81.348,67.535,81.857,68.953,83.204,69.333z"/>
	</g>
</g>
</svg>
